<svg id="Layer_1" height="512" viewBox="0 0 512 512" width="512" xmlns="http://www.w3.org/2000/svg" data-name="Layer 1"><path d="m235.023 169.357a5.971 5.971 0 0 0 3.361-1.034l32.97-22.351-6.734-9.933-32.969 22.352a6 6 0 0 0 3.372 10.966z"/><path d="m379.571 287.334-8.226 8.226a6 6 0 1 0 8.486 8.485l7.059-7.059-5.228-5.227z"/><path d="m407.647 264.3 5.964 5.964 8.467-8.467a6 6 0 1 0 -8.485-8.486l-8.051 8.051 1.364 2.036a5.986 5.986 0 0 0 .741.902z"/><path d="m353.664 266.613a6 6 0 0 0 8.485 8.485l7.9-7.9-5.449-11.525z"/><path d="m402.285 234.963a6 6 0 1 0 -8.486-8.486l-6.968 6.969 6.81 10.161z"/><path d="m386.715 203.9a6 6 0 0 0 -8.485-8.486l-10.11 10.111 6.81 10.16z"/><path d="m339.5 234.144a6 6 0 0 0 8.485 8.486l7.1-7.1-5.448-11.523z"/><path d="m366.217 177.772a6 6 0 1 0 -8.485-8.486l-8.323 8.324 6.81 10.161z"/><path d="m325.342 201.676a6 6 0 1 0 8.486 8.485l6.288-6.288-5.447-11.524z"/><path d="m346.424 150.936a6 6 0 0 0 -8.486-8.485l-7.24 7.241 6.81 10.161z"/><path d="m311.182 169.208a6 6 0 1 0 8.485 8.485l5.482-5.482-5.449-11.523z"/><path d="m311.313 142.943 8.389 17.745 10.996-10.996-9.167-13.677z"/><path d="m334.669 192.349 14.74-14.739-11.901-17.757-12.359 12.358z"/><path d="m272.637 132.152h6.92v7.916h-6.92z" transform="matrix(.828 -.561 .561 .828 -28.811 178.378)"/><path d="m285.638 103.414h37.79v26.836h-37.79z" transform="matrix(.828 -.561 .561 .828 -13.094 191.013)"/><path d="m379.571 287.334 25.971-25.971-11.901-17.756-23.59 23.589z"/><path d="m407.039 272.987h37.789v72.643h-37.789z" transform="matrix(.707 -.707 .707 .707 -93.961 391.775)"/><path d="m364.604 255.673 22.227-22.227-11.901-17.758-19.846 19.846z"/><path d="m460.305 340.77h7.916v7.018h-7.916z" transform="matrix(.707 -.707 .707 .707 -107.463 429.121)"/><path d="m349.636 224.011 18.484-18.483-11.901-17.757-16.103 16.102z"/><path d="m475.23 346.761a6 6 0 0 0 -8.485 8.485l19.011 19.012a6 6 0 0 0 8.485-8.486z"/><path d="m38.822 251.333c18.532 9.811 27.612 15.5 32.425 23.276 5.057 8.168 4.326 16.856 3.115 31.25-.183 2.177-.379 4.511-.571 7.02-2.663 34.827 2.3 80.108 24.2 102.85a9.145 9.145 0 0 0 1.994.88 4.437 4.437 0 0 0 6.066-5c-.031-.162-.055-.326-.073-.49-.351-3.339-8.195-82.269 27.043-125.162a22.667 22.667 0 0 1 34.977.193c34.551 43.111 26.791 121.643 26.444 124.965-.017.166-.042.33-.072.494a4.6 4.6 0 0 0 .3 2.735 4.652 4.652 0 0 0 5.77 2.266 9.2 9.2 0 0 0 1.994-.88c21.9-22.741 26.865-68.023 24.2-102.85-.191-2.5-.386-4.821-.568-6.988-1.21-14.4-1.94-23.091 3.116-31.259 4.805-7.762 13.883-13.46 32.415-23.3 11.2-5.945 19.363-20.143 21.837-37.979a16.644 16.644 0 0 0 -6.953-15.971l-4.768-3.349a3.958 3.958 0 0 0 -5.343.754l-2.354 2.921a15.948 15.948 0 0 1 -27.8-5.793l-2.464-9a3.944 3.944 0 0 0 -4.445-2.853 15.948 15.948 0 0 1 -18.027-19.695l2.516-9.825a4.085 4.085 0 0 0 -2.779-4.934 23.175 23.175 0 0 0 -14.816.435c-7.987 3.011-13.259 6.28-19.363 10.065-3.743 2.321-7.807 4.84-12.787 7.416 12.191 4.719 22.294 6.106 31.226 4.363a6 6 0 1 1 2.3 11.778c-18.808 3.67-37.737-4.237-50.338-10.5-2.612-1.3-6.1-3.315-10.146-5.65-13.286-7.672-33.364-19.267-49.242-21.373-48.39-6.414-63.962 25.251-68.41 39.166-8.856 27.708.02 59.773 19.381 70.024z"/></svg>