<svg id="Layer_1" height="512" viewBox="0 0 512 512" width="512" xmlns="http://www.w3.org/2000/svg" data-name="Layer 1"><path d="m71.852 303.449a44.057 44.057 0 0 1 -7.726-18.211 44.074 44.074 0 0 1 -18.212 7.726 44.063 44.063 0 0 1 7.727 18.212 44.053 44.053 0 0 1 18.211-7.727z"/><path d="m130.8 231.776c46.567 24.653 47.95 30.45 44.758 68.4-.235 2.8-.488 5.8-.735 9.031-5.268 68.9 12.916 114.184 31.69 133.583a11.059 11.059 0 0 0 3.117 1.436 7.615 7.615 0 0 0 9.535-3.848 7.7 7.7 0 0 0 .492-4.513q-.047-.243-.072-.489a338.073 338.073 0 0 1 .1-58.732c3.81-43.857 15.338-77.774 34.264-100.811a27.413 27.413 0 0 1 42.285.231c18.557 23.156 29.846 57.067 33.553 100.794a341.57 341.57 0 0 1 .055 58.514c-.017.165-.041.33-.072.493a7.7 7.7 0 0 0 .492 4.513 7.615 7.615 0 0 0 9.535 3.848 10.488 10.488 0 0 0 3.146-1.464c18.745-19.371 36.929-64.65 31.661-133.555-.246-3.213-.5-6.2-.732-8.991-3.187-37.933-1.8-43.73 44.749-68.439 13.493-7.162 23.651-23.116 27.871-43.772a105.5 105.5 0 0 0 -2.1-50.343 58.116 58.116 0 0 0 -3.942 12.353 6 6 0 0 1 -11.766 0 57.585 57.585 0 0 0 -45.294-45.293 6 6 0 0 1 0-11.767 57.989 57.989 0 0 0 14.548-4.986c-15.04-4.4-32.631-3.914-52.479 1.5-17.839 4.863-26.92 10.493-37.435 17.013a208.523 208.523 0 0 1 -19.661 11.149c17.556 7.309 31.928 9.584 44.579 7.114a6 6 0 1 1 2.3 11.778c-23.654 4.616-47.619-5.407-63.586-13.347-3.307-1.646-7.772-4.224-12.942-7.209-17.186-9.926-43.158-24.924-63.9-27.675-63.456-8.416-83.9 33.207-89.744 51.494a97.97 97.97 0 0 0 -1.182 54.514c4.851 17.545 14.412 30.855 26.912 37.476z"/><path d="m434.57 130.356a69.45 69.45 0 0 1 31.516-31.516 69.445 69.445 0 0 1 -31.516-31.516 69.445 69.445 0 0 1 -31.516 31.516 69.45 69.45 0 0 1 31.516 31.516z"/><path d="m93.57 402.59a59.822 59.822 0 0 1 24.75-24.75 59.845 59.845 0 0 1 -24.75-24.75 59.851 59.851 0 0 1 -24.75 24.75 59.828 59.828 0 0 1 24.75 24.75z"/></svg>