<svg height="464pt" viewBox="0 -64 464 464" width="464pt" xmlns="http://www.w3.org/2000/svg"><path d="m144 285.753906v-11.507812l-16 4v3.507812zm0 0"/><path d="m168 320c-10.96875 0-20.136719-7.441406-22.992188-17.503906l-33.007812-8.25v-6.246094h-64v-16h64v-6.246094l33.007812-8.25c2.855469-10.0625 12.023438-17.503906 22.992188-17.503906h161.753906l-.425781-1.703125c-4.464844-17.832031-20.417969-30.296875-38.808594-30.296875h-229.039062c-18.382813 0-34.34375 12.464844-38.808594 30.296875l-22.671875 90.6875v7.015625h352v-7.015625l-2.246094-8.984375zm0 0"/><path d="m59.9375 192.128906c.519531-.015625 1.015625-.128906 1.542969-.128906h229.046875c.527344 0 1.023437.113281 1.542968.128906 8.378907-26.039062 18.144532-51.34375 29.175782-75.242187 4.480468-9.71875 6.753906-20.070313 6.753906-30.773438v-12.671875c0-40.496094-32.945312-73.441406-73.441406-73.441406-13.3125 0-26.375 3.617188-37.78125 10.464844l-6.9375 4.167968c-20.433594 12.253907-47.238282 12.253907-67.671875 0l-6.9375-4.167968c-11.414063-6.847656-24.476563-10.464844-37.789063-10.464844-40.496094 0-73.441406 32.945312-73.441406 73.441406v12.671875c0 10.695313 2.273438 21.054688 6.761719 30.773438 11.03125 23.898437 20.789062 49.210937 29.175781 75.242187zm37.511719-176.128906c10.40625 0 20.628906 2.832031 29.566406 8.199219l6.894531 4.128906c25.433594 15.273437 58.761719 15.265625 84.136719.023437l6.953125-4.167968c8.9375-5.351563 19.152344-8.183594 29.550781-8.183594l1.640625.023438-.390625 15.992187-1.25-.015625c-7.503906 0-14.878906 2.039062-21.328125 5.902344l-6.949218 4.167968c-15.167969 9.113282-32.554688 13.929688-50.273438 13.929688s-35.121094-4.824219-50.3125-13.945312l-6.894531-4.125c-6.464844-3.882813-13.839844-5.929688-21.34375-5.929688zm0 0"/><path d="m400 272h32v16h-32zm0 0"/><path d="m456 240h-8v80h8c4.40625 0 8-3.585938 8-8v-64c0-4.414062-3.59375-8-8-8zm0 0"/><path d="m376 256h-8v16h-16v-16h-16v32h-16v-32h-16v16h-16v-16h-16v32h-16v-32h-16v16h-16v-16h-16v32h-16v-32h-24c-4.40625 0-8 3.585938-8 8v32c0 4.414062 3.59375 8 8 8h208c4.40625 0 8-3.585938 8-8v-32c0-4.414062-3.59375-8-8-8zm0 0"/></svg>