<svg id="Layer_1" height="512" viewBox="0 0 512 512" width="512" xmlns="http://www.w3.org/2000/svg" data-name="Layer 1"><path d="m43.922 203.031 43.831 8.763 33.838-169.26-43.831-8.762zm49.847-151.709a16.378 16.378 0 1 1 -16.378 16.378 16.4 16.4 0 0 1 16.378-16.378z"/><path d="m173.564 310.763a46.776 46.776 0 0 0 35.842-40.288l4.73-41.97c1.515-13.442 3.592-26.991 6.175-40.275a6.015 6.015 0 0 1 .629-1.741 50.853 50.853 0 0 1 94.121 12.986l12.671 54.7a58.936 58.936 0 0 0 33 40.41l-25.7-138.944a37.582 37.582 0 0 0 -12.116-21.324l-33.608-29.49a31.539 31.539 0 0 0 -15.666-7.418l-.111-.019-95.779-17.7a48.05 48.05 0 0 0 -23.4 1.511l-2.589.835a5.993 5.993 0 0 1 -1.841.289h-24.049l-19.658 98.332 16.193 1.987a6 6 0 0 1 4.415 2.868 58.9 58.9 0 0 0 49.643 28.733 6 6 0 0 1 5.858 6.581z"/><path d="m93.769 72.077a4.378 4.378 0 1 0 -4.378-4.377 4.383 4.383 0 0 0 4.378 4.377z"/><path d="m410.131 105.692.1-.017a32.573 32.573 0 0 0 27.105-30.622l-131.184 28.587 19.945 17.5z"/><path d="m347.852 374.505c11.93-6.332 16.725-28.694 9.867-46.015-3.967-10.017-14.877-25.663-43.392-17.891-8.291 2.259-12.554 4.9-17.491 7.964-1.178.73-2.405 1.491-3.728 2.272a29.044 29.044 0 0 0 13.706 1.041 6 6 0 1 1 2.3 11.777c-12.481 2.435-24.834-2.708-33.04-6.79-1.7-.846-3.924-2.129-6.5-3.614-8.192-4.73-20.572-11.88-30.108-13.145-9.568-1.27-32.678-1.561-40.55 23.069-5.255 16.437-.175 35.364 11.092 41.329 23.706 12.551 25.166 16.639 23.5 36.408-.114 1.362-.237 2.822-.358 4.393-1.625 21.267 1.305 48.8 14.352 62.639.123.056.319.138.607.237a.737.737 0 0 0 .849-.2.686.686 0 0 0 .041-.415c-.031-.162-.055-.326-.073-.49-.224-2.135-5.238-52.611 17.481-80.266a16.469 16.469 0 0 1 25.436.142c22.268 27.786 17.31 78 17.088 80.12-.017.165-.042.33-.072.494a.67.67 0 0 0 .04.413.736.736 0 0 0 .85.2c.287-.1.484-.181.606-.237 13.047-13.838 15.978-41.373 14.352-62.639-.12-1.563-.242-3.016-.356-4.372-1.651-19.758-.195-23.846 23.501-36.424z"/><path d="m438.71 250.15-58.836-73.525-31.2-13.185 4.237 22.906 5.738 6.576 38.865 45.2a39.143 39.143 0 0 0 41.196 12.028z"/><path d="m468.078 173.992-118.288-45-13.115 2.408a49.742 49.742 0 0 1 9.171 17.816l82.554 34.892c.051.022.1.044.154.068a32.564 32.564 0 0 0 39.524-10.184z"/></svg>