<svg id="Layer_1" height="512" viewBox="0 0 512 512" width="512" xmlns="http://www.w3.org/2000/svg" data-name="Layer 1">
    <path d="m319.327 324.25a6 6 0 0 0 -5.443-10.695l-22.884 11.645v13.464z"/>
    <path d="m199.655 371.682a6 6 0 1 0 5.442 10.695l17.9-9.11v-13.467z"/>
    <path d="m199.542 407.618a6 6 0 1 0 5.442 10.7l18.016-9.172v-13.465z"/>
    <path d="m319.214 360.187a6 6 0 0 0 -5.443-10.7l-22.771 11.592v13.465z"/>
    <path d="m199.429 443.555a6 6 0 1 0 5.442 10.695l18.129-9.225v-13.465z"/>
    <path d="m319.1 396.123a6 6 0 0 0 -5.443-10.695l-22.657 11.53v13.465z"/>
    <path d="m291 396.958v-22.414l-68 34.602v22.414z"/>
    <path d="m223 457.818 33.588 16.982 34.412-17.018v-47.359l-68 34.602z"/>
    <path d="m112.067 184.068c46.616 24.68 48 30.482 44.806 68.473q-.106 1.264-.217 2.585h198.983q-.108-1.3-.213-2.544c-3.19-37.973-1.806-43.775 44.8-68.511 13.036-6.919 23.059-22.206 27.5-41.942 4.473-19.875 2.87-41.8-4.4-60.154-15.14-38.232-50.259-52.952-96.354-40.389-17.86 4.869-26.951 10.506-37.478 17.034a208.713 208.713 0 0 1 -19.708 11.174c17.6 7.33 31.983 9.6 44.658 7.122a6 6 0 0 1 2.3 11.778c-11.341 2.212-30.279 3.235-63.653-13.362-3.311-1.647-7.781-4.228-12.956-7.217-17.206-9.937-43.209-24.953-63.972-27.707-63.532-8.422-84 33.248-89.853 51.556a98.093 98.093 0 0 0 -1.183 54.58c4.849 17.568 14.418 30.895 26.94 37.524zm121.54 34.54a29.793 29.793 0 0 1 45.948.25 6 6 0 0 1 -9.364 7.5 17.794 17.794 0 0 0 -27.311-.138 6 6 0 1 1 -9.273-7.617z"/>
    <path d="m291 338.664-68 34.603v22.414l68-34.602z"/>
    <path d="m291 298.759h-68v61.043l68-34.602z"/>
    <path d="m203 267.126h108v19.633h-108z"/>
</svg>