<svg height="464pt" viewBox="0 -56 464 463" width="464pt" xmlns="http://www.w3.org/2000/svg"><path d="m0 32.5h80v16h-80zm0 0"/><path d="m168 264.5h-32c-4.414062 0-8 3.585938-8 8s3.585938 8 8 8h32c4.414062 0 8-3.585938 8-8s-3.585938-8-8-8zm0 0"/><path d="m96 8.5h16v64h-16zm0 0"/><path d="m128 32.5h32v16h-32zm0 0"/><path d="m168 152.5c11.238281 0 20.632812 7.800781 23.222656 18.246094l-3.664062-21.054688c-1.328125-7.648437-7.917969-13.191406-15.679688-13.191406-1.71875 0-3.40625.273438-5.03125.816406l-.769531.253906c-6.605469 2.210938-10.863281 8.21875-10.917969 14.929688zm0 0"/><path d="m344.441406 25.84375c6.535156 4.351562 14.132813 6.65625 21.984375 6.65625h39.847657c-5.28125-18.449219-22.265626-32-42.378907-32h-155.894531v16h105.574219c11.019531 0 21.683593 3.230469 30.867187 9.34375zm0 0"/><path d="m289.878906 120.5h71.640625c3.519531-15.96875 13.039063-29.992188 26.839844-39.183594 11.207031-7.472656 18.234375-19.542968 19.402344-32.816406h-41.335938c-11.019531 0-21.683593-3.230469-30.859375-9.34375-6.542968-4.351562-14.140625-6.65625-21.992187-6.65625h-105.574219v48c22.351562 0 44.511719 7.382812 62.398438 20.800781 7.34375 5.511719 13.847656 11.992188 19.480468 19.199219zm0 0"/><path d="m184 80.5h8v-80h-8c-4.414062 0-8 3.59375-8 8v64c0 4.40625 3.585938 8 8 8zm0 0"/><path d="m168 232.5h-32c-4.414062 0-8 3.585938-8 8s3.585938 8 8 8h32c4.414062 0 8-3.585938 8-8s-3.585938-8-8-8zm0 0"/><path d="m168 200.5h-32c-4.414062 0-8 3.585938-8 8s3.585938 8 8 8h32c4.414062 0 8-3.585938 8-8s-3.585938-8-8-8zm0 0"/><path d="m332.121094 168.5h-21.503906c.824218 5.304688 1.382812 10.640625 1.382812 16v110.625c0 8.175781-3.183594 15.871094-8.96875 21.65625l-11.070312 11.070312c-2.554688 2.550782-3.960938 5.953126-3.960938 9.558594 0 4.378906 1.550781 8.097656 4.375 10.882813 2.808594 2.765625 6.714844 4.398437 10.457031 4.199219 14.144531-.183594 28.246094-.128907 42.40625 0 4.25.046874 7.640625-1.472657 10.441407-4.230469 2.785156-2.761719 4.320312-6.449219 4.320312-10.386719v-147.167969c-10.609375-5.421875-20.175781-12.886719-27.878906-22.207031zm0 0"/><path d="m296 184.5c0-5.375-.664062-10.710938-1.648438-16h-19.046874l-58.121094 58.128906 6.128906 35.246094 72.6875-72.6875zm0 0"/><path d="m453.871094 168.5-46.773438-26.726562c-6.035156-3.449219-12.90625-5.273438-19.851562-5.273438h-115.253906c-4.40625 0-7.992188 3.59375-7.992188 8s3.59375 8 8.007812 8h67.992188l2.398438 3.199219c13.53125 18.03125 35.066406 28.800781 57.601562 28.800781h8v16h-8c-8.199219 0-16.246094-1.289062-24-3.511719v83.511719h17.472656c7.917969 0 15.589844-2.320312 22.183594-6.71875l37.917969-25.28125h10.425781v-80zm0 0"/><path d="m296 211.8125-68.6875 68.6875h68.6875zm0 0"/><path d="m168 168.5h-32c-4.414062 0-8 3.59375-8 8s3.585938 8 8 8h32c4.414062 0 8-3.59375 8-8s-3.585938-8-8-8zm0 0"/><path d="m191.6875 173.394531c.136719 1.035157.3125 2.042969.3125 3.105469 0 6.167969-2.40625 11.742188-6.238281 16 3.839843 4.257812 6.238281 9.832031 6.238281 16s-2.40625 11.742188-6.238281 16c3.839843 4.257812 6.238281 9.832031 6.238281 16s-2.40625 11.742188-6.238281 16c3.839843 4.257812 6.238281 9.832031 6.238281 16 0 9.078125-5.128906 16.894531-12.574219 20.976562l1.015625 5.839844c1.328125 7.640625 7.917969 13.183594 15.679688 13.183594 1.71875 0 3.40625-.273438 5.03125-.816406l.769531-.253906c7.550781-2.523438 12.039063-10.027344 10.679687-17.839844zm0 0"/><path d="m207.078125 168.5 6.753906 38.855469 38.855469-38.855469zm0 0"/></svg>