<svg id="Layer_1" height="512" viewBox="0 0 512 512" width="512" xmlns="http://www.w3.org/2000/svg" data-name="Layer 1"><path d="m157.67 163.535h196.66v18.963h-196.66z"/><path d="m143.894 92.746 12.624 58.789h198.964l12.624-58.789a29.4 29.4 0 0 1 -2.916-1.546l-48.176 36.914a6 6 0 0 1 -8.44-1.15l-44.574-59.111a29.413 29.413 0 0 1 -16.643-.181l-47.738 59.436a6 6 0 0 1 -4.046 2.21c-.211.021-.422.033-.633.033a6 6 0 0 1 -3.786-1.346l-44.859-36.505q-1.168.673-2.401 1.246z"/><path d="m247.027 54.46a5.971 5.971 0 0 1 2.331 1.145c.029.023.053.049.082.073a17.416 17.416 0 0 0 13.37-.093 5.989 5.989 0 0 1 1.357-.655 17.5 17.5 0 1 0 -17.14-.47z"/><path d="m376.038 82.88c.1.017.208.029.313.051a6.141 6.141 0 0 1 .694.2 17.851 17.851 0 1 0 -1.007-.249z"/><path d="m131.542 83.468a17.526 17.526 0 0 0 3.413-.339 6.141 6.141 0 0 1 .694-.2c.1-.022.207-.033.31-.05a17.385 17.385 0 0 0 5.308-2.377 6.152 6.152 0 0 1 .381-.526 5.98 5.98 0 0 1 2.361-1.758 17.468 17.468 0 1 0 -12.467 5.248z"/><path d="m128 259.171c-8.667 27.114.01 58.492 18.948 68.518 18.191 9.63 27.105 15.217 31.838 22.865 4.979 8.042 4.261 16.576 3.072 30.713-.18 2.135-.372 4.422-.56 6.883-2.609 34.12 2.248 78.475 23.69 100.749a9.158 9.158 0 0 0 1.921.844 4.234 4.234 0 0 0 5.793-4.773c-.031-.162-.055-.326-.073-.49-.344-3.276-8.04-80.717 26.542-122.812a22.344 22.344 0 0 1 34.479.19c33.907 42.309 26.294 119.359 25.954 122.618-.017.166-.042.33-.073.494a4.235 4.235 0 0 0 5.794 4.772 9.2 9.2 0 0 0 1.919-.842c21.442-22.275 26.3-66.63 23.691-100.75-.187-2.449-.379-4.727-.557-6.852-1.188-14.143-1.906-22.68 3.073-30.721 4.725-7.634 13.638-13.23 31.828-22.885 9.57-5.08 16.948-16.389 20.242-31.027a78.429 78.429 0 0 0 -3.288-45.019c-11.243-28.391-37.4-39.3-71.751-29.939-13.416 3.657-20.265 7.9-28.195 12.821-3.615 2.242-7.533 4.672-12.316 7.157 11.823 4.544 21.635 5.871 30.312 4.179a6 6 0 0 1 2.3 11.779c-18.476 3.605-37.062-4.157-49.432-10.309-2.564-1.276-5.989-3.254-9.955-5.544-13.02-7.518-32.694-18.881-48.242-20.943-47.37-6.279-62.606 24.708-66.954 38.324z"/></svg>