<svg id="Layer_1" height="512" viewBox="0 0 512 512" width="512" xmlns="http://www.w3.org/2000/svg" data-name="Layer 1"><path d="m114.606 307.809c5.626 9.09 4.8 18.906 3.433 35.17-.21 2.488-.434 5.155-.653 8.022-3.06 40.013 2.685 92.082 27.979 118.223a11.2 11.2 0 0 0 2.512 1.113 6.1 6.1 0 0 0 7.647-3.054 6.175 6.175 0 0 0 .394-3.621c-.031-.162-.055-.326-.072-.49-.4-3.8-9.325-93.6 30.695-142.309a25.033 25.033 0 0 1 38.621.212c39.242 48.963 30.413 138.313 30.018 142.093-.018.166-.042.331-.073.494a6.179 6.179 0 0 0 .394 3.62 6.1 6.1 0 0 0 7.647 3.056 9.4 9.4 0 0 0 2.578-1.175c25.229-26.075 30.974-78.146 27.914-118.163-.218-2.854-.442-5.508-.65-7.986-1.367-16.269-2.192-26.091 3.435-35.179 5.383-8.7 15.67-15.142 36.694-26.3 11.4-6.052 20.176-19.462 24.076-36.794a92.364 92.364 0 0 0 -3.874-53.014c-13.3-33.591-44.191-46.516-84.749-35.459-15.763 4.3-23.8 9.278-33.1 15.046-4.883 3.028-9.883 6.128-16.217 9.294 14.869 6.006 27.1 7.823 37.887 5.719a6 6 0 1 1 2.3 11.777c-21.224 4.143-42.665-4.819-56.945-11.922-2.959-1.472-6.937-3.768-11.543-6.429-15.231-8.795-38.247-22.086-56.549-24.513-55.9-7.417-73.906 29.218-79.05 45.313-10.231 32.008.094 69.092 22.547 80.979 21.022 11.13 31.311 17.568 36.704 26.277z"/><path d="m456.618 63.719h-262.354l-9.033-9a45.705 45.705 0 0 0 -32.47-13.419h-97.379a16.018 16.018 0 0 0 -16 16v45.815a6 6 0 0 0 12 0v-45.815a4 4 0 0 1 4-4h2.478v50.48a6 6 0 0 0 12 0v-50.48h5.4v50.48a6 6 0 0 0 12 0v-50.48h5.4v50.48a6 6 0 0 0 12 0v-50.48h5.4v50.48a6 6 0 0 0 12 0v-50.48h5.4v50.48a6 6 0 1 0 12 0v-50.48h5.4v50.48a6 6 0 0 0 12 0v-50.227a33.743 33.743 0 0 1 19.9 9.664l19.154 19.083a45.7 45.7 0 0 0 32.469 13.416h228.235a16 16 0 1 0 0-32z"/></svg>